<?xml version="1.0" standalone="no"?>
<svg xmlns="http://www.w3.org/2000/svg" viewBox="0 0 154.8 36" width="154.8" height="36"><g fill="#ffffff" color="#ffffff" transform="translate(0 4) scale(0.21875)"><svg width="128.0" height="128.0" x="0.0" y="0.0" viewBox="0 0 128 128"><g><g><g><path d="M76.145,114.877H51.855c-1.104,0-2-0.896-2-2V71.808c0-1.104,0.896-2,2-2h24.289c1.104,0,2,0.896,2,2     v41.069C78.145,113.981,77.249,114.877,76.145,114.877z M53.855,110.877h20.289V73.808H53.855V110.877z"></path><g><path d="M47.254,55.636c-8.914,0-16.12-6.146-17.328-14.976c-0.035-0.257-0.02-0.519,0.044-0.77l8.842-34.389      C39.04,4.618,39.837,4,40.75,4h22.751c0.532,0,1.041,0.212,1.417,0.588c0.375,0.377,0.585,0.887,0.583,1.418L65.396,40.02      c0,0.146-0.017,0.288-0.046,0.425c-0.9,8.497-7.847,14.716-16.981,15.16C47.994,55.625,47.623,55.636,47.254,55.636z       M33.946,40.493c1.125,6.868,7.04,11.528,14.212,11.116c7.195-0.35,12.63-5.192,13.232-11.778      c0.002-0.019,0.004-0.038,0.006-0.057L61.495,8H42.3L33.946,40.493z"></path><path d="M110.18,56.07c-3.726,0-7.43-1.265-10.451-3.621c-3.373-2.629-5.604-6.33-6.396-10.55      c-0.162-0.208-0.285-0.45-0.355-0.718L83.82,6.511c-0.159-0.6-0.03-1.239,0.349-1.731C84.547,4.288,85.133,4,85.753,4h14.021      c4.2,0,7.942,2.347,9.369,5.855l16.586,29.08l-0.008,0.005c0.209,0.384,0.302,0.844,0.262,1.275l0,0      c-0.776,8.13-6.246,14.57-13.301,15.662C111.852,56.007,111.016,56.07,110.18,56.07z M96.41,38.513      c0.368,0.325,0.619,0.781,0.667,1.298c0.352,3.82,2.167,7.188,5.112,9.484c2.832,2.209,6.437,3.166,9.88,2.63      c5.015-0.775,9.099-5.594,9.873-11.557l-16.343-28.653c-0.05-0.088-0.094-0.18-0.13-0.274C104.678,9.383,102.39,8,99.774,8      H88.35L96.41,38.513z"></path><path d="M17.438,55.952c-0.449,0-0.896-0.02-1.341-0.059C8.835,55.121,2.725,48.417,2.147,40.779      c-0.22-0.541-0.194-1.157,0.082-1.684l15.176-28.899C18.847,6.484,22.645,4,26.902,4H40.75c0.618,0,1.202,0.286,1.581,0.774      s0.51,1.125,0.356,1.724l-8.842,34.389c-0.009,0.034-0.019,0.069-0.029,0.103c-0.189,3.928-1.92,7.592-4.938,10.405      C25.763,54.3,21.569,55.952,17.438,55.952z M6.123,40.285c0.341,5.868,4.928,11.049,10.362,11.628      c3.401,0.295,7.028-0.985,9.665-3.443c2.433-2.269,3.74-5.255,3.682-8.41c-0.009-0.46,0.142-0.907,0.422-1.267L38.17,8H26.902      c-2.642,0-4.971,1.493-5.795,3.715c-0.03,0.081-0.064,0.159-0.104,0.234L6.123,40.285z"></path><path d="M79.09,55.915c-3.986,0-7.804-1.258-10.929-3.634c-3.74-2.843-6.119-7.038-6.715-11.829      c-0.033-0.146-0.05-0.294-0.05-0.444l0.105-34.014C61.504,4.892,62.399,4,63.501,4h22.252c0.908,0,1.702,0.611,1.934,1.489      l9.158,34.671c0.079,0.298,0.087,0.609,0.026,0.911c-1.572,7.69-8.138,13.881-15.612,14.72      C80.533,55.874,79.809,55.915,79.09,55.915z M65.396,39.803c0.431,3.779,2.271,7.079,5.186,9.294      c2.864,2.178,6.494,3.145,10.229,2.72c5.659-0.636,10.655-5.271,12.043-11.104L84.213,8H65.495L65.396,39.803z"></path><g><path d="M123.992,42.025H4.109c-1.104,0-2-0.896-2-2s0.896-2,2-2h119.883c1.104,0,2,0.896,2,2       S125.097,42.025,123.992,42.025z"></path></g></g><path d="M109.857,82.024H85.143c-1.104,0-2-0.896-2-2V65.111c0-1.104,0.896-2,2-2h24.715c1.104,0,2,0.896,2,2     v14.913C111.857,81.129,110.962,82.024,109.857,82.024z M87.143,78.024h20.715V67.111H87.143V78.024z"></path></g><g><g><path d="M118.736,124c-1.104,0-2.031-0.896-2.031-2s0.865-2,1.969-2h0.062c1.104,0,2,0.896,2,2      S119.841,124,118.736,124z"></path></g><g><path d="M109.675,124H9.264c-1.104,0-2-0.896-2-2s0.896-2,2-2h100.411c1.104,0,2,0.896,2,2      S110.779,124,109.675,124z"></path></g></g><path d="M118.736,114.877H9.264c-1.104,0-2-0.896-2-2v-62.16c0-1.104,0.896-2,2-2s2,0.896,2,2v60.16h105.473    V50.833c0-1.104,0.896-2,2-2s2,0.896,2,2v62.044C120.736,113.981,119.841,114.877,118.736,114.877z"></path></g></g></svg></g><path fill="#ffffff" fill-rule="nonzero" d="M5.23 19.82L5.23 19.82Q3.17 19.82 2.03 18.96Q0.89 18.10 0.44 16.63Q0 15.17 0 13.37L0 13.37L0 6.50Q0 4.54 0.44 3.07Q0.89 1.61 2.03 0.80Q3.17 0 5.23 0L5.23 0Q7.06 0 8.12 0.67Q9.19 1.34 9.66 2.59Q10.13 3.84 10.13 5.59L10.13 5.59L10.13 7.13L7.56 7.13L7.56 5.76Q7.56 4.68 7.45 3.85Q7.34 3.02 6.86 2.57Q6.38 2.11 5.26 2.11L5.26 2.11Q4.10 2.11 3.58 2.60Q3.05 3.10 2.89 4.00Q2.74 4.90 2.74 6.10L2.74 6.10L2.74 13.80Q2.74 15.26 2.98 16.12Q3.22 16.97 3.77 17.33Q4.32 17.69 5.26 17.69L5.26 17.69Q6.36 17.69 6.84 17.20Q7.32 16.70 7.44 15.84Q7.56 14.98 7.56 13.82L7.56 13.82L7.56 12.38L10.13 12.38L10.13 13.82Q10.13 15.60 9.70 16.96Q9.26 18.31 8.21 19.07Q7.15 19.82 5.23 19.82ZM16.32 19.80L16.32 19.80Q14.78 19.80 13.90 19.18Q13.01 18.55 12.64 17.40Q12.26 16.25 12.26 14.69L12.26 14.69L12.26 10.66Q12.26 9.10 12.64 7.94Q13.01 6.79 13.90 6.17Q14.78 5.54 16.32 5.54L16.32 5.54Q17.86 5.54 18.73 6.17Q19.61 6.79 19.98 7.94Q20.35 9.10 20.35 10.66L20.35 10.66L20.35 14.69Q20.35 16.25 19.98 17.40Q19.61 18.55 18.73 19.18Q17.86 19.80 16.32 19.80ZM16.32 17.90L16.32 17.90Q17.06 17.90 17.36 17.47Q17.66 17.04 17.72 16.33Q17.78 15.62 17.78 14.86L17.78 14.86L17.78 10.51Q17.78 9.72 17.72 9.02Q17.66 8.33 17.36 7.88Q17.06 7.44 16.32 7.44L16.32 7.44Q15.58 7.44 15.26 7.88Q14.95 8.33 14.89 9.02Q14.83 9.72 14.83 10.51L14.83 10.51L14.83 14.86Q14.83 15.62 14.89 16.33Q14.95 17.04 15.26 17.47Q15.58 17.90 16.32 17.90ZM25.08 19.61L22.70 19.61L22.70 5.74L25.08 5.74L25.08 7.06Q25.78 6.26 26.62 5.88Q27.46 5.50 28.34 5.50L28.34 5.50Q29.11 5.50 29.72 5.88Q30.34 6.26 30.60 7.25L30.60 7.25Q31.34 6.34 32.22 5.92Q33.10 5.50 34.06 5.50L34.06 5.50Q34.73 5.50 35.28 5.82Q35.83 6.14 36.17 6.85Q36.50 7.56 36.50 8.71L36.50 8.71L36.50 19.61L34.15 19.61L34.15 8.88Q34.15 7.87 33.83 7.52Q33.50 7.18 32.95 7.18L32.95 7.18Q32.42 7.18 31.85 7.48Q31.27 7.78 30.79 8.30L30.79 8.30Q30.79 8.40 30.79 8.50Q30.79 8.59 30.79 8.71L30.79 8.71L30.79 19.61L28.44 19.61L28.44 8.88Q28.44 7.87 28.12 7.52Q27.79 7.18 27.24 7.18L27.24 7.18Q26.71 7.18 26.15 7.48Q25.58 7.78 25.08 8.30L25.08 8.30L25.08 19.61ZM42.86 19.80L42.86 19.80Q41.23 19.80 40.34 19.16Q39.46 18.53 39.11 17.29Q38.76 16.06 38.76 14.26L38.76 14.26L38.76 11.09Q38.76 9.24 39.12 8.02Q39.48 6.79 40.38 6.17Q41.28 5.54 42.86 5.54L42.86 5.54Q44.62 5.54 45.44 6.26Q46.27 6.98 46.54 8.34Q46.80 9.70 46.80 11.59L46.80 11.59L46.80 12.72L41.33 12.72L41.33 15.50Q41.33 16.34 41.48 16.87Q41.64 17.40 41.99 17.65Q42.34 17.90 42.89 17.90L42.89 17.90Q43.46 17.90 43.76 17.63Q44.06 17.35 44.17 16.84Q44.28 16.32 44.28 15.62L44.28 15.62L44.28 14.78L46.78 14.78L46.78 15.31Q46.78 17.40 45.89 18.60Q45 19.80 42.86 19.80ZM41.33 10.58L41.33 11.33L44.28 11.33L44.28 10.08Q44.28 9.22 44.18 8.63Q44.09 8.04 43.79 7.74Q43.49 7.44 42.84 7.44L42.84 7.44Q42.22 7.44 41.89 7.73Q41.57 8.02 41.45 8.70Q41.33 9.38 41.33 10.58L41.33 10.58ZM51.77 19.61L49.20 19.61L49.20 5.74L51.77 5.74L51.77 7.70Q52.54 6.43 53.30 6Q54.07 5.57 54.84 5.57L54.84 5.57Q54.94 5.57 55.02 5.57Q55.10 5.57 55.25 5.59L55.25 5.59L55.25 8.42Q54.96 8.30 54.59 8.22Q54.22 8.14 53.83 8.14L53.83 8.14Q53.23 8.14 52.74 8.41Q52.25 8.69 51.77 9.48L51.77 9.48L51.77 19.61ZM60.62 19.80L60.62 19.80Q58.92 19.80 58.04 19.12Q57.17 18.43 56.87 17.18Q56.57 15.94 56.57 14.28L56.57 14.28L56.57 11.09Q56.57 9.34 56.88 8.10Q57.19 6.86 58.07 6.20Q58.94 5.54 60.62 5.54L60.62 5.54Q62.14 5.54 62.96 6.04Q63.79 6.53 64.10 7.50Q64.42 8.47 64.42 9.91L64.42 9.91L64.42 10.73L62.09 10.73L62.09 9.89Q62.09 8.98 61.97 8.45Q61.85 7.92 61.54 7.68Q61.22 7.44 60.65 7.44L60.65 7.44Q60.02 7.44 59.69 7.73Q59.35 8.02 59.24 8.70Q59.14 9.38 59.14 10.56L59.14 10.56L59.14 14.93Q59.14 16.70 59.47 17.30Q59.81 17.90 60.67 17.90L60.67 17.90Q61.32 17.90 61.62 17.60Q61.92 17.30 62.00 16.75Q62.09 16.20 62.09 15.50L62.09 15.50L62.09 14.38L64.42 14.38L64.42 15.34Q64.42 16.73 64.09 17.74Q63.77 18.74 62.94 19.27Q62.11 19.80 60.62 19.80ZM69.43 19.61L66.86 19.61L66.86 5.74L69.43 5.74L69.43 19.61ZM69.43 3.67L66.86 3.67L66.86 0.98L69.43 0.98L69.43 3.67ZM74.69 19.80L74.69 19.80Q73.87 19.80 73.25 19.33Q72.62 18.86 72.26 18.13Q71.90 17.40 71.90 16.58L71.90 16.58Q71.90 15.29 72.34 14.40Q72.77 13.51 73.52 12.90Q74.28 12.29 75.28 11.83Q76.27 11.38 77.38 10.94L77.38 10.94L77.38 9.96Q77.38 9.12 77.28 8.57Q77.18 8.02 76.88 7.74Q76.58 7.46 75.98 7.46L75.98 7.46Q75.46 7.46 75.13 7.70Q74.81 7.94 74.66 8.39Q74.52 8.83 74.52 9.43L74.52 9.43L74.52 10.13L71.98 10.03Q72.02 7.73 73.03 6.64Q74.04 5.54 76.15 5.54L76.15 5.54Q78.22 5.54 79.08 6.67Q79.94 7.80 79.94 9.94L79.94 9.94L79.94 16.27Q79.94 16.92 79.98 17.52Q80.02 18.12 80.08 18.64Q80.14 19.15 80.18 19.61L80.18 19.61L77.83 19.61Q77.76 19.22 77.65 18.64Q77.54 18.05 77.50 17.57L77.50 17.57Q77.26 18.38 76.57 19.09Q75.89 19.80 74.69 19.80ZM75.70 17.59L75.70 17.59Q76.08 17.59 76.42 17.38Q76.75 17.16 77.02 16.88Q77.28 16.61 77.38 16.44L77.38 16.44L77.38 12.50Q76.78 12.84 76.25 13.18Q75.72 13.51 75.32 13.88Q74.93 14.26 74.70 14.72Q74.47 15.19 74.47 15.79L74.47 15.79Q74.47 16.63 74.78 17.11Q75.10 17.59 75.70 17.59ZM85.22 19.61L82.66 19.61L82.66 0.17L85.22 0.17L85.22 19.61ZM89.62 19.61L87.07 19.61L91.20 0.17L93.82 0.17L97.97 19.61L95.40 19.61L94.51 14.71L90.55 14.71L89.62 19.61ZM92.52 4.01L90.91 12.77L94.15 12.77L92.52 4.01ZM102.29 24.17L99.72 24.17L99.72 5.74L102.29 5.74L102.29 6.84Q102.74 6.31 103.39 5.93Q104.04 5.54 104.93 5.54L104.93 5.54Q106.01 5.54 106.64 6.11Q107.28 6.67 107.59 7.52Q107.90 8.38 108 9.25Q108.10 10.13 108.10 10.75L108.10 10.75L108.10 14.11Q108.10 15.58 107.81 16.88Q107.52 18.19 106.76 19.00Q106.01 19.80 104.64 19.80L104.64 19.80Q103.90 19.80 103.32 19.43Q102.74 19.06 102.29 18.58L102.29 18.58L102.29 24.17ZM104.14 17.78L104.14 17.78Q104.81 17.78 105.10 17.29Q105.38 16.80 105.46 15.96Q105.53 15.12 105.53 14.11L105.53 14.11L105.53 10.75Q105.53 9.89 105.43 9.16Q105.34 8.42 105.02 7.99Q104.71 7.56 104.04 7.56L104.04 7.56Q103.54 7.56 103.08 7.78Q102.62 7.99 102.29 8.28L102.29 8.28L102.29 17.16Q102.65 17.42 103.10 17.60Q103.56 17.78 104.14 17.78ZM112.99 24.17L110.42 24.17L110.42 5.74L112.99 5.74L112.99 6.84Q113.45 6.31 114.10 5.93Q114.74 5.54 115.63 5.54L115.63 5.54Q116.71 5.54 117.35 6.11Q117.98 6.67 118.30 7.52Q118.61 8.38 118.70 9.25Q118.80 10.13 118.80 10.75L118.80 10.75L118.80 14.11Q118.80 15.58 118.51 16.88Q118.22 18.19 117.47 19.00Q116.71 19.80 115.34 19.80L115.34 19.80Q114.60 19.80 114.02 19.43Q113.45 19.06 112.99 18.58L112.99 18.58L112.99 24.17ZM114.84 17.78L114.84 17.78Q115.51 17.78 115.80 17.29Q116.09 16.80 116.16 15.96Q116.23 15.12 116.23 14.11L116.23 14.11L116.23 10.75Q116.23 9.89 116.14 9.16Q116.04 8.42 115.73 7.99Q115.42 7.56 114.74 7.56L114.74 7.56Q114.24 7.56 113.78 7.78Q113.33 7.99 112.99 8.28L112.99 8.28L112.99 17.16Q113.35 17.42 113.81 17.60Q114.26 17.78 114.84 17.78Z" transform="translate(36, 8.196)"></path></svg>